<svg xmlns="http://www.w3.org/2000/svg" xlink="http://www.w3.org/1999/xlink" width="0" height="0" style="display:none;"><symbol id="common-icon-github"><defs><style type="text/css"/></defs><path d="M512.465 98.744c-236.05-2.401-429.41 187.034-431.998 423.242 0.894 183.912 120.176 346.283 295.332 402.018 21.6 3.93 29.451-9.04 29.451-20.436v-71.916c-120.17 25.545-145.7-56.59-145.7-56.59a112.364 112.364 0 0 0-47.914-62.089c-39.272-25.937 3.141-25.545 3.141-25.545a90.702 90.702 0 0 1 65.978 43.624c25.358 43.993 81.26 59.548 125.678 34.976a91.569 91.569 0 0 1 27.487-56.59c-95.825-10.615-196.36-46.768-196.36-209.067a163.13 163.13 0 0 1 43.591-114.358 148.652 148.652 0 0 1 4.32-111.609c15.896-35.223 36.525-11.397 117.815 43.229a419.24 419.24 0 0 1 216.002 0c82.471-54.626 117.82-43.229 117.82-43.229a148.657 148.657 0 0 1 4.32 111.61 163.145 163.145 0 0 1 45.945 113.57c0 162.695-101.321 198.458-196.36 209.067a98.273 98.273 0 0 1 29.452 78.594v115.933c0 13.752 7.856 24.756 29.457 20.43 174.63-56.071 293.466-218.106 294.545-401.622C941.878 285.778 748.52 96.343 512.465 98.744" fill="#231F20" p-id="14928"/></symbol><symbol id="common-icon-location"><defs><style type="text/css"/></defs><path d="M890.434783 133.565217l-200.347826 534.26087-44.52174-289.391304-289.391304-44.52174 534.26087-200.347826z m133.565217-133.565217L0 356.173913l556.521739 111.304348 111.304348 556.521739L1024 0z" p-id="15666"/></symbol></svg>